<?xml version="1.0" standalone="no"?>
<!DOCTYPE svg PUBLIC "-//W3C//DTD SVG 1.1//EN" "http://www.w3.org/Graphics/SVG/1.1/DTD/svg11.dtd" >
<svg xmlns="http://www.w3.org/2000/svg" xmlns:xlink="http://www.w3.org/1999/xlink" version="1.1">
<metadata></metadata>
<defs>
<font id="sofia_proextralight_italic" horiz-adv-x="1269" >
<font-face units-per-em="2048" ascent="1536" descent="-512" />
<missing-glyph horiz-adv-x="552" />
<glyph unicode="&#xfb01;" horiz-adv-x="1165" d="M211 872l14 84h193l24 140q15 88 45 159.5t77.5 127.5t118 87t159.5 31h84l-19 -90h-84q-236 0 -288 -315l-25 -140h655l-168 -956h-92l154 872h-563l-154 -872h-92l153 872h-192zM1100 1311q6 32 33.5 53.5t62.5 21.5t53.5 -21.5t12.5 -53.5q-6 -33 -32 -54.5t-61 -21.5 t-55 22t-14 54z" />
<glyph unicode="&#xfb02;" horiz-adv-x="1134" d="M211 872l14 84h193l24 140q15 88 45 159.5t77.5 127.5t118 87t159.5 31h387l-266 -1501h-93l248 1411h-295q-236 0 -288 -315l-25 -140h256l-14 -84h-256l-154 -872h-92l153 872h-192z" />
<glyph unicode="&#xfb03;" horiz-adv-x="1857" d="M211 872l14 84h193l24 140q15 88 45 159.5t77.5 127.5t118 87t159.5 31h84l-19 -90h-84q-236 0 -288 -315l-25 -140h600l25 140q15 88 45 159.5t77 127.5t117.5 87t159.5 31h84l-19 -90h-83q-237 0 -289 -315l-25 -140h656l-168 -956h-93l154 872h-563l-154 -872h-92 l154 872h-600l-154 -872h-92l153 872h-192zM1792 1311q6 32 33.5 53.5t62.5 21.5t53.5 -21.5t12.5 -53.5q-6 -33 -31.5 -54.5t-60.5 -21.5t-55.5 22t-14.5 54z" />
<glyph unicode="&#xfb04;" horiz-adv-x="1826" d="M211 872l14 84h193l24 140q15 88 45 159.5t77.5 127.5t118 87t159.5 31h84l-19 -90h-84q-236 0 -288 -315l-25 -140h600l25 140q15 88 45 159.5t77 127.5t117.5 87t159.5 31h84l-19 -90h-83q-237 0 -289 -315l-25 -140h256l-14 -84h-256l-154 -872h-92l154 872h-600 l-154 -872h-92l153 872h-192zM1563 0l266 1501h92l-266 -1501h-92z" />
<glyph horiz-adv-x="0" />
<glyph horiz-adv-x="682" />
<glyph unicode=" "  horiz-adv-x="552" />
<glyph unicode="&#x09;" horiz-adv-x="552" />
<glyph unicode="&#xa0;" horiz-adv-x="552" />
<glyph unicode="!" horiz-adv-x="501" d="M176 66q6 35 33 56t63 21t58 -21.5t16 -55.5q-6 -35 -35 -57.5t-65 -22.5t-56 22.5t-14 57.5zM268 344l185 1067h92l-195 -1067h-82z" />
<glyph unicode="&#x22;" horiz-adv-x="620" d="M319 885l95 526h82l-95 -526h-82zM526 885l95 526h81l-94 -526h-82z" />
<glyph unicode="#" horiz-adv-x="1427" d="M145 367l41 88h265l223 495h-266l41 88h266l168 373h88l-168 -373h368l168 373h91l-170 -373h268l-41 -88h-268l-222 -495h267l-39 -88h-269l-163 -367h-91l166 367h-368l-166 -367h-88l166 367h-267zM539 455h368l223 495h-368z" />
<glyph unicode="$" horiz-adv-x="1126" d="M168 367h92q-8 -118 74.5 -206.5t228.5 -88.5q86 0 160 22.5t126.5 60t88.5 82t55 93.5q78 255 -237 336l-193 47q-56 12 -100.5 31.5t-73.5 42t-49.5 50t-30.5 54t-13.5 56.5t-1.5 55.5t7 52.5q19 104 93 188.5t175.5 131.5t210.5 52l37 199h78l-39 -201 q159 -18 245 -115.5t66 -250.5h-92q17 125 -66 200.5t-225 75.5q-134 0 -251 -80t-138 -200q-38 -197 207 -254l189 -45q66 -15 120 -39.5t98.5 -62t67.5 -86.5t26.5 -113t-24.5 -142q-51 -125 -174 -220t-301 -111l-43 -234h-78l41 232q-119 8 -204.5 65.5t-122.5 141.5 t-29 180z" />
<glyph unicode="%" horiz-adv-x="1380" d="M283 1130q17 103 102 175.5t188 72.5q105 0 162.5 -72t40.5 -176q-20 -104 -104.5 -174.5t-188.5 -70.5q-105 0 -162.5 70.5t-37.5 174.5zM311 0l910 1368h77l-907 -1368h-80zM375 1130q-11 -66 24 -109.5t101 -43.5q67 0 119.5 43t64.5 110q11 66 -26 111t-103 45 t-117.5 -45t-62.5 -111zM848 231q17 103 101 175.5t186 72.5q104 0 163.5 -72.5t42.5 -175.5q-20 -104 -103.5 -174.5t-186.5 -70.5q-104 0 -163.5 71t-39.5 174zM940 231q-12 -66 24.5 -109.5t102.5 -43.5t118 43.5t64 109.5t-25.5 111t-103.5 45t-117 -45t-63 -111z" />
<glyph unicode="&#x26;" horiz-adv-x="1355" d="M195 420q21 126 114.5 238t225.5 161q-64 46 -90.5 121t-12.5 156q25 140 142.5 235.5t265.5 95.5q97 0 168.5 -39.5t107.5 -109.5l-86 -51q-62 108 -207 108q-108 0 -195 -69.5t-104 -169.5q-19 -104 38.5 -172t166.5 -68h354l35 182h92l-34 -184h192l-14 -86h-193 l-61 -348q-11 -61 -14.5 -106.5t2.5 -92t25 -76.5t58 -49.5t97 -21.5l-15 -90q-109 0 -181 57.5t-73 163.5q-44 -74 -118 -127t-154 -77t-160 -24q-194 0 -299.5 128t-72.5 315zM289 420q-25 -146 57 -247t240 -101q155 0 272.5 95t147.5 239l63 362h-358 q-153 0 -275 -102.5t-147 -245.5z" />
<glyph unicode="'" horiz-adv-x="413" d="M319 885l95 526h82l-95 -526h-82z" />
<glyph unicode="(" horiz-adv-x="706" d="M197 473q77 440 260 690t420 262l-15 -92q-193 -8 -346.5 -234.5t-226.5 -625.5q-72 -394 3 -622t265 -236l-16 -94q-234 12 -327.5 262t-16.5 690z" />
<glyph unicode=")" horiz-adv-x="706" d="M-2 -479l14 94q191 8 344 234.5t226 623.5q71 400 -2 624.5t-265 235.5l15 92q233 -12 327 -261t17 -691q-38 -219 -106.5 -396.5t-157 -297t-193.5 -186t-219 -72.5z" />
<glyph unicode="*" horiz-adv-x="952" d="M319 1133l50 96l268 -111l35 309h106l-73 -309l311 111l12 -94l-309 -80l149 -246l-88 -55l-121 256l-227 -260l-67 59l239 240z" />
<glyph unicode="+" horiz-adv-x="1062" d="M207 489l18 91h363l61 360h90l-61 -360h364l-18 -91h-365l-65 -364h-90l65 364h-362z" />
<glyph unicode="," horiz-adv-x="468" d="M20 -258q152 169 193 408h102q-52 -263 -235 -431q-5 3 -30 11.5t-30 11.5z" />
<glyph unicode="-" horiz-adv-x="980" d="M225 424l17 88h673l-16 -88h-674z" />
<glyph unicode="." horiz-adv-x="477" d="M162 57q6 35 34 57.5t64 22.5t57 -22.5t15 -57.5q-6 -34 -35.5 -55.5t-65.5 -21.5t-55.5 21t-13.5 56z" />
<glyph unicode="/" horiz-adv-x="935" d="M74 0l934 1411h102l-934 -1411h-102z" />
<glyph unicode="0" horiz-adv-x="1236" d="M241 325.5q-6 81.5 0 166t23 186.5q21 122 51.5 222.5t80 191.5t113.5 152.5t154.5 97.5t200.5 36q93 0 161.5 -24t110.5 -71.5t66 -108t29 -142.5t-1.5 -166.5t-23.5 -187.5q-21 -122 -51 -221t-78.5 -190t-111 -152.5t-152 -98t-199.5 -36.5q-93 0 -162 24.5t-112 71 t-68 107.5t-31 142.5zM336 485.5q-5 -86.5 7.5 -165t45 -131.5t94 -84t148.5 -31q88 0 160 31t122.5 84t90.5 132t65.5 164.5t44.5 192.5q19 106 24.5 191.5t-6 165t-43.5 133t-92.5 85t-148.5 31.5t-160.5 -31.5t-124.5 -84.5t-92.5 -132t-66 -165.5t-44.5 -192.5 t-24 -192.5z" />
<glyph unicode="1" horiz-adv-x="630" d="M291 1163l14 88l354 123l-241 -1374h-94l219 1247z" />
<glyph unicode="2" horiz-adv-x="1052" d="M123 0l4 33l694 684q151 151 174 282q24 127 -50 207t-204 80q-116 0 -213.5 -60t-138.5 -161l-82 22q53 133 177 212t274 79q170 0 264 -106.5t65 -272.5q-31 -176 -208 -346l-576 -561h631l-14 -92h-797z" />
<glyph unicode="3" horiz-adv-x="1105" d="M145 233l15 7l30 12l46 18q24 -85 98 -137.5t172 -58.5q98 -5 190 31t159 106t91 158q28 138 -49.5 226.5t-206.5 88.5h-135l16 90h136q94 0 184.5 65.5t114.5 164.5q30 112 -31 191t-197 91q-90 7 -181 -34.5t-146 -110.5l-68 45q73 95 185 147t233 45q75 -5 134 -27.5 t95.5 -58.5t58 -83.5t21.5 -102t-14 -113.5q-24 -83 -88 -154t-150 -106q55 -14 97.5 -53.5t63.5 -91.5t27 -113t-10 -119q-46 -168 -207.5 -277t-343.5 -97q-129 10 -219.5 78t-120.5 173z" />
<glyph unicode="4" horiz-adv-x="1173" d="M117 295l927 1065h68l-176 -977h213l-14 -88h-213l-50 -295h-92l49 295h-712zM299 383h545l141 795z" />
<glyph unicode="5" horiz-adv-x="1132" d="M147 250q7 4 45 24.5t48 28.5q29 -94 121.5 -159.5t197.5 -65.5q175 0 294.5 97t145.5 243q14 77 -5.5 140.5t-62.5 102.5t-99 60.5t-117 21.5q-103 0 -186.5 -22t-215.5 -82l-28 49l239 672h645l-18 -92h-565l-185 -514q104 44 176 64t152 20q83 0 156 -28.5t126.5 -80 t77 -132.5t5.5 -179q-33 -193 -183.5 -314.5t-367.5 -121.5q-130 0 -242.5 76t-153.5 192z" />
<glyph unicode="6" horiz-adv-x="1132" d="M233 426q10 94 23 176.5t37.5 183t55.5 181.5t80.5 161t109.5 133.5t144 86t183 30.5q252 0 314 -233l-90 -35q-51 173 -244 176q-71 1 -133 -21t-107 -58t-83.5 -91.5t-64 -111.5t-47.5 -127.5t-34.5 -129t-24.5 -126.5q58 112 171 168t231 51q116 -5 198 -66 t114.5 -162t8.5 -221q-40 -180 -185 -299t-323 -112q-172 5 -263 126t-71 320zM324 424q-29 -149 48.5 -247t215.5 -103q140 -4 252.5 87.5t144.5 233.5q28 142 -43.5 244t-206.5 106q-140 5 -262 -88.5t-149 -232.5z" />
<glyph unicode="7" horiz-adv-x="1032" d="M133 0l924 1268h-715l16 92h871l-989 -1360h-107z" />
<glyph unicode="8" horiz-adv-x="1148" d="M195 406q23 129 112.5 232t220.5 153q-66 41 -93.5 110.5t-10.5 155.5q25 135 138 228t257 93q146 0 228 -93.5t57 -227.5q-17 -85 -72.5 -156t-134.5 -113q112 -48 168 -152t33 -230q-32 -179 -185 -302.5t-344 -123.5q-192 0 -299 123t-75 303zM287 406 q-25 -142 60.5 -238t238.5 -96t274 96.5t146 237.5q25 135 -61 235t-236 100l-23 -2q-146 -7 -260 -103t-139 -230zM516 1057q-17 -95 37.5 -163.5t151.5 -68.5l20 2q105 4 187.5 71.5t97.5 158.5q17 94 -43.5 161.5t-165.5 67.5q-103 0 -185.5 -67t-99.5 -162z" />
<glyph unicode="9" horiz-adv-x="1134" d="M188 211l88 37q51 -173 250 -176q389 -7 490 659q-54 -104 -170 -161t-230 -52q-116 3 -198.5 65t-114.5 163.5t-8 220.5q42 180 186.5 297.5t325.5 113.5q172 -5 262 -126t70 -320q-10 -95 -23 -177t-37.5 -183t-55.5 -182t-80.5 -161t-109.5 -133t-144 -85.5 t-183 -30.5q-254 0 -318 231zM385 961q-21 -93 4.5 -172.5t91 -127.5t156.5 -51q140 -5 260 88.5t152 235.5q29 145 -49 245t-214 105q-139 5 -255.5 -88t-145.5 -235z" />
<glyph unicode=":" horiz-adv-x="477" d="M162 57q6 35 34 57.5t64 22.5t57 -22.5t15 -57.5q-6 -34 -35.5 -55.5t-65.5 -21.5t-55.5 21t-13.5 56zM311 897q6 35 34.5 57.5t64.5 22.5t56.5 -22.5t14.5 -57.5t-34 -56.5t-64 -21.5t-57 21.5t-15 56.5z" />
<glyph unicode=";" horiz-adv-x="546" d="M70 -258q153 170 194 408h101q-51 -256 -234 -431q-5 3 -30.5 11.5t-30.5 11.5zM362 897q6 35 33.5 57.5t63.5 22.5t57.5 -22.5t15.5 -57.5t-34 -56.5t-64 -21.5t-57 21.5t-15 56.5z" />
<glyph unicode="&#x3c;" horiz-adv-x="1298" d="M186 481l21 105l1114 399l-18 -100l-996 -353l871 -352l-19 -98z" />
<glyph unicode="=" horiz-adv-x="1247" d="M203 248l18 90h924l-19 -90h-923zM281 678l16 90h924l-17 -90h-923z" />
<glyph unicode="&#x3e;" horiz-adv-x="1298" d="M164 82l16 98l998 352l-873 353l19 100l972 -399l-20 -105z" />
<glyph unicode="?" horiz-adv-x="980" d="M283 1065q36 163 164 261.5t286 98.5q167 0 269.5 -106.5t70.5 -278.5q-24 -135 -124.5 -236.5t-225.5 -135.5q-109 -29 -166.5 -73.5t-73.5 -143.5l-18 -107h-92l18 107q10 59 31.5 104.5t48 75.5t68 54.5t79 39t93.5 31.5q102 31 175.5 104.5t92.5 179.5 q24 129 -54.5 211t-205.5 82q-121 0 -219 -74.5t-125 -197.5zM285 66q6 35 33 56t63 21t58 -21.5t16 -55.5q-6 -35 -35.5 -57.5t-65.5 -22.5t-55.5 22.5t-13.5 57.5z" />
<glyph unicode="@" horiz-adv-x="2043" d="M199 510q32 187 133 356.5t243 292.5t322.5 195.5t366.5 72.5q151 0 286 -42.5t236.5 -120.5t172 -187.5t92.5 -242t-1 -285.5q-14 -77 -38.5 -153t-66 -155t-93.5 -138.5t-124.5 -97.5t-154.5 -38q-55 0 -99.5 13.5t-81 45.5t-47.5 84t1 130l51 282q25 130 -52 223 t-208 93t-237.5 -92t-131.5 -224q-25 -130 51.5 -222.5t206.5 -92.5q53 0 110.5 19t98.5 53l-18 -99q-99 -61 -207 -61q-167 0 -263.5 118.5t-68.5 284.5q19 109 90.5 202.5t174.5 147.5t212 54q165 0 263 -115.5t69 -280.5l-53 -294q-10 -51 -0.5 -87.5t34.5 -56t55 -28.5 t66 -9q63 0 119.5 32.5t97.5 84t74.5 118t53.5 131.5t30 128q30 167 -13.5 315.5t-141.5 251.5t-244 163t-316 60q-224 0 -431.5 -111.5t-349 -302t-181.5 -415.5q-42 -237 39.5 -430t262.5 -297.5t421 -93.5l-17 -88h-57q-187 0 -341 71t-252 192.5t-138 290t-6 355.5z" />
<glyph unicode="A" horiz-adv-x="1282" d="M51 0l789 1411h98l293 -1411h-98l-82 383h-689l-212 -383h-99zM412 469h624l-168 813z" />
<glyph unicode="B" horiz-adv-x="1265" d="M211 0l248 1411h497q168 -1 252 -91q62 -67 61 -172q0 -36 -7 -77q-20 -110 -78.5 -195.5t-153.5 -121.5q67 -21 115.5 -81.5t66.5 -136.5q11 -44 11 -87q0 -32 -6 -64q-31 -161 -153.5 -273t-297.5 -112h-555zM319 92h459q132 0 228.5 86.5t117.5 206.5q4 25 4 51 q0 32 -6 63q-12 57 -44 103t-87 74.5t-125 28.5h-438zM444 793h453q73 0 133 42.5t93.5 104t45.5 131.5q6 32 6 59q1 78 -47 125q-64 64 -192 64h-399z" />
<glyph unicode="C" horiz-adv-x="1351" d="M240 702q27 148 103.5 281.5t184.5 231t246.5 155t282.5 57.5q275 0 444 -190l-74 -66q-151 164 -387 164q-169 0 -320 -84.5t-253 -229t-135 -319.5q-13 -66 -12 -129q0 -99 32 -187q52 -144 175 -229t290 -85q236 0 443 164l51 -66q-231 -190 -510 -190q-193 0 -335 96 t-202 262q-38 104 -37 221q0 69 13 143z" />
<glyph unicode="D" horiz-adv-x="1478" d="M211 0l248 1411h524q117 0 211 -35t156 -99t100 -152.5t43 -194.5q1 -22 1 -46q0 -87 -15 -182q-27 -151 -91 -279t-158 -222.5t-221.5 -147.5t-273.5 -53h-524zM317 92h433q127 0 235.5 46t188 128t133.5 193t79 243q16 86 16 163q0 81 -18 152q-35 138 -142 220 t-275 82h-432z" />
<glyph unicode="E" horiz-adv-x="1128" d="M211 0l248 1411h782l-16 -92h-690l-103 -580h604l-16 -92h-604l-99 -555h715l-14 -92h-807z" />
<glyph unicode="F" horiz-adv-x="1052" d="M211 0l248 1411h772l-17 -92h-679l-103 -580h539l-17 -94h-538l-113 -645h-92z" />
<glyph unicode="G" horiz-adv-x="1552" d="M238 702q36 197 158 363.5t301.5 264t375.5 97.5q240 0 406 -147l-76 -70q-131 125 -346 125q-172 0 -327.5 -84.5t-261 -229.5t-138.5 -319q-12 -63 -12 -122q0 -102 36 -194q55 -145 182.5 -229.5t297.5 -84.5q240 0 408.5 132t234.5 376h-433l15 88h534 q-69 -343 -271 -517t-505 -174q-148 0 -269.5 57t-198 154t-107.5 231q-17 72 -17 148q0 66 13 135z" />
<glyph unicode="H" horiz-adv-x="1454" d="M211 0l248 1411h92l-117 -666h848l117 666h92l-248 -1411h-92l115 657h-848l-115 -657h-92z" />
<glyph unicode="I" horiz-adv-x="514" d="M211 0l248 1411h92l-248 -1411h-92z" />
<glyph unicode="J" horiz-adv-x="516" d="M-293 -465l27 90q33 -8 94 -8q82 0 149 27t112 75.5t73 109.5t41 134l256 1448h94l-256 -1448q-17 -93 -53 -170.5t-93.5 -139t-144 -96t-194.5 -34.5q-39 0 -105 12z" />
<glyph unicode="K" horiz-adv-x="1093" d="M211 0l248 1411h92l-125 -711l700 711h113l-723 -731l578 -680h-127l-551 647l-113 -647h-92z" />
<glyph unicode="L" horiz-adv-x="980" d="M211 0l248 1411h92l-234 -1319h619l-14 -92h-711z" />
<glyph unicode="M" horiz-adv-x="1945" d="M129 0l424 1411h96l365 -1171l780 1171h92l-69 -1411h-93l64 1253l-744 -1112h-96l-350 1114l-379 -1255h-90z" />
<glyph unicode="N" horiz-adv-x="1400" d="M211 0l248 1411h104l559 -1261l224 1261h92l-248 -1411h-100l-566 1262l-221 -1262h-92z" />
<glyph unicode="O" horiz-adv-x="1648" d="M238 702q36 197 158 363.5t301.5 264t375.5 97.5t343 -97q148 -98 212 -264q42 -108 41 -229q0 -66 -12 -135q-27 -148 -106 -281.5t-191 -230t-254 -153.5t-289 -57q-146 0 -267.5 57t-198.5 153t-109 230q-17 72 -16 148q0 66 12 134zM330 702q-12 -63 -11 -122 q0 -103 35 -195q56 -145 183.5 -229t296.5 -84q173 0 329.5 84t262.5 228.5t139 317.5q11 61 11 119q0 66 -14 128q-27 117 -95 201.5t-175 134.5t-235 50q-170 0 -326 -84.5t-262 -229.5t-139 -319z" />
<glyph unicode="P" horiz-adv-x="1224" d="M211 0l248 1411h549q81 0 143.5 -23.5t98.5 -64t58 -94t22 -114.5q0 -3 1 -6q0 -58 -10 -120q-15 -84 -49.5 -156t-89.5 -133t-139.5 -96t-188.5 -35h-448l-101 -569h-94zM420 662h444q80 0 146 27t110 73.5t71.5 104t37.5 122.5q6 50 6 97.5t-16.5 89.5t-43.5 74 t-74.5 50.5t-109.5 18.5h-454z" />
<glyph unicode="Q" horiz-adv-x="1648" d="M238 702q36 197 158 363.5t301.5 264t375.5 97.5q148 0 270 -57.5t199.5 -155t109.5 -231.5q17 -73 17 -149q0 -65 -12 -132q-36 -201 -165 -370.5t-310 -261.5l116 -256l-86 -50l-125 265q-133 -49 -270 -49q-146 0 -267.5 57t-198.5 153.5t-109 229.5q-16 72 -16 148 q0 66 12 134zM330 702q-12 -63 -12 -122q0 -103 36 -195q56 -145 183.5 -229t296.5 -84q114 0 221 37l-125 266l88 49l125 -277q161 79 275.5 228.5t146.5 326.5q10 60 10 116q0 108 -37 203q-55 145 -182 229.5t-299 84.5q-170 0 -326 -84.5t-262 -229.5t-139 -319z" />
<glyph unicode="R" horiz-adv-x="1236" d="M211 0l248 1411h520q81 0 143.5 -23.5t98.5 -64t58 -93.5q23 -54 23 -115v-6q0 -58 -10 -120q-15 -84 -49.5 -156t-89.5 -133t-139.5 -96t-188.5 -35h-26l303 -569h-113l-303 569h-280l-101 -569h-94zM420 662h416q155 0 248.5 94.5t115.5 232.5q6 50 6 97.5t-16 89.5 t-43 74t-74.5 50.5t-109.5 18.5h-426z" />
<glyph unicode="S" horiz-adv-x="1150" d="M182 367h92q-1 -10 0 -20q0 -104 74 -186q82 -89 230 -89q86 0 160 22.5t126.5 60t88.5 82t55 93.5q15 50 15 93q0 177 -253 243l-192 47q-65 14 -114.5 37.5t-79 52.5t-48 60t-24.5 66q-5 30 -4 55v10q1 30 7 61q19 106 98 192.5t186 133t216 46.5q183 -1 286 -101 q84 -82 84 -206q0 -29 -5 -61h-93q3 22 3 43q0 96 -66 158q-80 74 -225 75q-134 0 -251 -80t-138 -200q-5 -27 -5 -51q0 -154 211 -203l189 -45q66 -15 120 -39.5t99 -62t67.5 -86.5t26.5 -113v-16q0 -58 -24 -126q-26 -63 -71.5 -120t-110.5 -106t-156 -78t-195 -29 q-95 0 -171.5 33.5t-123 89t-68.5 123.5q-17 54 -17 110q0 16 1 31z" />
<glyph unicode="T" horiz-adv-x="1138" d="M287 1319l16 92h1028l-16 -92h-469l-232 -1319h-92l232 1319h-467z" />
<glyph unicode="U" horiz-adv-x="1378" d="M279 469l167 942h91l-166 -942q-8 -41 -7 -80q0 -43 9 -83q18 -76 64 -126.5t114 -79t149 -28.5q168 0 303 109.5t168 287.5l166 942h95l-168 -942q-27 -145 -114 -258.5t-209 -173.5t-257 -60q-100 0 -184 35.5t-140 98.5t-78 156q-12 49 -12 103q0 48 9 99z" />
<glyph unicode="V" horiz-adv-x="1112" d="M326 1411h96l156 -1280l608 1280h96l-670 -1411h-110z" />
<glyph unicode="W" horiz-adv-x="1880" d="M307 1411h96l203 -1274l500 1065h90l121 -1065l653 1274h98l-727 -1411h-98l-121 1038l-487 -1038h-96z" />
<glyph unicode="X" horiz-adv-x="1179" d="M29 0l639 762l-324 649h113l280 -571l480 571h112l-549 -649l371 -762h-113l-327 686l-570 -686h-112z" />
<glyph unicode="Y" horiz-adv-x="1232" d="M289 1411h110l353 -647l581 647h111l-664 -743l-116 -668h-95l117 668z" />
<glyph unicode="Z" horiz-adv-x="1101" d="M82 0l10 76l1034 1241h-800l16 94h920l-13 -80l-1032 -1237h811l-14 -94h-932z" />
<glyph unicode="[" horiz-adv-x="579" d="M104 -463l334 1874h299l-16 -94h-205l-299 -1686h205l-19 -94h-299z" />
<glyph unicode="\" horiz-adv-x="935" d="M322 1411h102l438 -1411h-102z" />
<glyph unicode="]" horiz-adv-x="579" d="M8 -463l15 94h204l299 1686h-204l16 94h299l-334 -1874h-295z" />
<glyph unicode="_" horiz-adv-x="1390" d="M117 -174l16 90h1088l-17 -90h-1087z" />
<glyph unicode="`" horiz-adv-x="894" d="M508 1382h113l106 -266h-92z" />
<glyph unicode="a" d="M186 479q24 140 111 255t211.5 179t259.5 64q130 0 228 -60t139 -165l34 204h95l-166 -956h-94l34 207q-78 -105 -198 -166t-248 -61q-206 0 -324 143q-90 110 -90 260q0 46 8 96zM281 479q-8 -42 -8 -81q1 -118 73 -206q96 -118 262 -118q167 0 304 110.5t173 284.5 q7 42 7 80q0 127 -74 217q-96 116 -266 117q-167 0 -304.5 -116t-166.5 -288z" />
<glyph unicode="b" d="M172 0l264 1501h94l-131 -749q74 105 194.5 165t250.5 60q136 0 236 -64q101 -65 146 -179q29 -75 30 -160q0 -46 -9 -95q-24 -140 -111 -255.5t-211.5 -179.5t-258.5 -64q-128 0 -226 61t-139 166l-35 -207h-94zM348 469q-6 -38 -6 -73q0 -72 26 -133q39 -91 122 -140 t192 -49q167 0 303 116.5t168 288.5q7 40 7 77q0 122 -73 211q-95 116 -262 116q-168 0 -308 -117.5t-169 -296.5z" />
<glyph unicode="c" horiz-adv-x="1021" d="M186 481q27 148 115 262t211.5 174t259.5 60q189 0 305 -113l-69 -69q-103 90 -252 90q-172 0 -308.5 -112t-168.5 -292q-7 -44 -8 -83q1 -125 75 -212q98 -114 266 -114q152 0 283 92l49 -70q-160 -114 -348 -114q-102 0 -186.5 36t-140.5 100q-56 66 -79 160 q-13 52 -13 108q0 47 9 97z" />
<glyph unicode="d" d="M186 479q24 140 111 255t211.5 179t259.5 64q130 0 228 -60t139 -165l133 749h94l-264 -1501h-94l34 207q-78 -105 -198 -166t-248 -61q-206 0 -324 143q-90 110 -90 260q0 46 8 96zM281 479q-8 -42 -8 -81q1 -118 73 -206q96 -118 262 -118q167 0 304 110.5t173 284.5 q7 42 7 80q0 127 -74 217q-96 116 -266 117q-167 0 -304.5 -116t-166.5 -288z" />
<glyph unicode="e" horiz-adv-x="1146" d="M188 481q27 148 111.5 262t204 174t254.5 60t230 -60q96 -59 137 -173q25 -68 25 -150q0 -54 -11 -113q-5 -33 -9 -43h-854q-3 -26 -3 -50q-1 -132 77 -216q92 -100 248 -100q108 0 203.5 47.5t161.5 134.5l86 -31q-84 -116 -207 -179.5t-260 -63.5q-205 0 -319 139 q-85 104 -85 254q0 51 10 108zM291 524h762q2 22 2 43q1 135 -73 220q-84 98 -241 98t-283 -99t-167 -262z" />
<glyph unicode="f" horiz-adv-x="643" d="M211 872l14 84h193l24 140q15 88 45 159.5t77.5 127.5t118 87t159.5 31h84l-19 -90h-84q-68 0 -119.5 -25t-84 -72t-51.5 -98.5t-33 -119.5l-25 -140h256l-14 -84h-256l-154 -872h-92l153 872h-192z" />
<glyph unicode="g" d="M137 -260l86 51q41 -87 117.5 -130.5t173.5 -43.5q96 0 174 26t146 85t117 162.5t75 250.5l12 70q-73 -105 -195 -168t-251 -63q-206 0 -324 142q-90 108 -90 259q0 46 8 96q24 140 112 255.5t213 180t259 64.5q128 0 226 -61t139 -166l36 206h95l-146 -813 q-24 -140 -67.5 -247t-100 -177t-129.5 -114.5t-152 -63t-173 -18.5q-120 0 -214.5 54t-146.5 163zM281 477q-8 -44 -8 -84q0 -117 71 -203q97 -116 264 -116q165 0 305 114.5t172 288.5q8 44 8 85q0 120 -73 206q-98 115 -268 115q-166 0 -304 -118t-167 -288z" />
<glyph unicode="h" horiz-adv-x="1144" d="M172 0l264 1501h94l-131 -733q57 107 162 158t215 51q172 0 258 -112q61 -79 62 -199q0 -49 -11 -105l-100 -561h-92l98 561q8 43 8 81q0 94 -46 156q-64 87 -195 87q-65 0 -126 -19.5t-117 -59t-97.5 -108.5t-59.5 -161l-92 -537h-94z" />
<glyph unicode="i" horiz-adv-x="436" d="M172 0l168 956h92l-168 -956h-92zM367 1311q6 32 32.5 53.5t61.5 21.5t54 -21.5t13 -53.5q-6 -33 -32.5 -54.5t-61.5 -21.5t-54 22t-13 54z" />
<glyph unicode="j" horiz-adv-x="436" d="M-227 -463l18 90h84q55 0 99 17.5t73.5 45.5t52 70t36 84.5t24.5 96.5l180 1015h92l-180 -1015q-76 -404 -395 -404h-84zM369 1311q6 32 32.5 53.5t61.5 21.5t54 -21.5t13 -53.5q-6 -33 -31.5 -54.5t-60.5 -21.5t-55 22t-14 54z" />
<glyph unicode="k" horiz-adv-x="929" d="M172 0l264 1501h92l-166 -940l459 395h133l-485 -415l449 -541h-130l-434 520l-90 -520h-92z" />
<glyph unicode="l" horiz-adv-x="436" d="M172 0l264 1501h92l-264 -1501h-92z" />
<glyph unicode="m" horiz-adv-x="1865" d="M172 0l168 956h94l-35 -188q29 55 75.5 97t99 65.5t103.5 35t99 11.5q130 0 210 -63.5t97 -184.5q35 72 88 123.5t112 77t111 36.5t103 11q173 0 259 -112q61 -79 61 -199q0 -49 -11 -105l-100 -561h-92l98 561q8 43 8 81q0 94 -46 156q-64 87 -195 87 q-140 0 -251.5 -85.5t-150.5 -262.5l-92 -537h-92l98 561q8 43 8 81q0 94 -46 156q-64 87 -195 87q-65 0 -126 -19.5t-117 -59t-97.5 -108.5t-59.5 -161l-92 -537h-94z" />
<glyph unicode="n" horiz-adv-x="1144" d="M172 0l168 956h94l-35 -188q57 107 162 158t215 51q174 1 259 -111q60 -79 61 -199q0 -49 -11 -106l-100 -561h-92l98 561q8 43 8 81q0 94 -46 156q-64 87 -195 87q-65 0 -126 -19.5t-117 -59t-97.5 -108.5t-59.5 -161l-92 -537h-94z" />
<glyph unicode="o" horiz-adv-x="1208" d="M186 481q27 148 115 262t212 174t261 60q101 0 186 -35.5t142 -98.5q56 -63 80 -157q13 -51 13 -107q0 -47 -9 -98q-39 -222 -208 -361.5t-380 -139.5q-102 0 -187 36t-141 100q-57 66 -80 160q-13 52 -13 108q0 47 9 97zM279 481q-7 -44 -8 -84q0 -125 75 -211 q98 -114 268 -114q172 0 310 113.5t170 295.5q7 43 7 83q0 124 -74 209q-98 112 -269 112q-112 0 -213 -49t-173 -142t-93 -213z" />
<glyph unicode="p" d="M86 -463l254 1419h94l-37 -206q78 105 198 166t249 61q101 0 185 -38t138 -104t76 -160q12 -52 12 -107q0 -45 -8 -93q-24 -140 -111 -254.5t-211.5 -177.5t-258.5 -63q-129 0 -226.5 59.5t-138.5 163.5l-121 -666h-94zM350 485q-7 -41 -7 -79q0 -45 9 -86 q19 -77 64.5 -130.5t114.5 -84.5t151 -31q168 0 303.5 114.5t167.5 286.5q7 41 7 78q0 122 -72 212q-94 118 -261 118q-168 0 -306 -111.5t-171 -286.5z" />
<glyph unicode="q" d="M186 475q24 141 111.5 257t212 180.5t258.5 64.5q129 0 228 -61.5t137 -165.5l36 206h95l-252 -1419h-94l120 666q-78 -104 -198 -163.5t-248 -59.5q-206 0 -324 141q-90 108 -90 258q0 46 8 96zM281 475q-8 -43 -8 -82q0 -118 73 -204q96 -115 262 -115q169 0 307 116.5 t170 294.5q6 38 6 73q0 73 -27 135q-39 92 -121.5 141t-190.5 49q-165 0 -303.5 -118.5t-167.5 -289.5z" />
<glyph unicode="r" horiz-adv-x="755" d="M172 0l168 956h94l-45 -247q57 126 149.5 197t213.5 71q79 0 135 -27l-31 -90q-52 23 -123 23t-132 -32t-104 -82.5t-77.5 -120t-55 -137.5t-34.5 -142l-64 -369h-94z" />
<glyph unicode="s" horiz-adv-x="864" d="M133 244h86q4 -32 16 -59.5t36 -55t68.5 -43.5t104.5 -16q110 0 182 49.5t89 134.5q3 17 3 33q0 104 -138 141l-131 33q-32 8 -56.5 17.5t-54 25t-47 37.5t-30.5 52q-13 29 -13 69q0 44 16 98q32 97 128.5 157t213.5 60q120 -1 190 -63q63 -57 63 -156q0 -10 -1 -21h-92 q1 68 -47 109t-127 41q-82 0 -148.5 -39t-89.5 -100q-11 -29 -12 -54q0 -8 2 -16q5 -31 16.5 -52t34.5 -37t45 -24.5t47 -13.5l129 -33q195 -50 195 -207q0 -27 -6 -57q-20 -122 -127 -198t-256 -76q-124 0 -210 70q-79 65 -80 176q0 9 1 18z" />
<glyph unicode="t" horiz-adv-x="600" d="M209 872l14 84h174l70 385h92l-70 -385h224l-15 -84h-223l-153 -872h-93l154 872h-174z" />
<glyph unicode="u" horiz-adv-x="1146" d="M229 395l99 561h94l-98 -561q-8 -44 -7 -82q1 -94 45 -155q64 -86 193 -86q67 0 128 19t116.5 59t96 109t58.5 161l95 536h94l-168 -956h-94l32 188q-39 -73 -106 -121.5t-134 -67.5t-136 -19q-173 0 -257 112q-60 80 -60 201q0 48 9 102z" />
<glyph unicode="v" horiz-adv-x="1026" d="M225 956h101l202 -852l510 852h101l-572 -956h-108z" />
<glyph unicode="w" horiz-adv-x="1673" d="M227 956h101l164 -815l450 815h121l164 -813l450 813h99l-527 -956h-86l-180 854l-469 -854h-86z" />
<glyph unicode="x" horiz-adv-x="946" d="M35 0l471 528l-232 428h117l189 -348l311 348h117l-387 -428l290 -528h-114l-246 449l-404 -449h-112z" />
<glyph unicode="y" horiz-adv-x="1024" d="M184 -463l275 459l-234 960h99l206 -843l508 843h101l-863 -1419h-92z" />
<glyph unicode="z" horiz-adv-x="980" d="M86 0l10 74l805 790h-649l16 92h787l-15 -75l-807 -789h668l-14 -92h-801z" />
<glyph unicode="{" horiz-adv-x="763" d="M164 440l12 80q60 11 108 57.5t58 106.5l66 360q19 114 87.5 203t164 134.5t200.5 45.5h72l-17 -88h-71q-123 0 -223.5 -82.5t-120.5 -212.5l-66 -360q-11 -63 -52.5 -120.5t-100.5 -86.5q47 -29 68.5 -85.5t10.5 -117.5l-61 -354q-24 -130 47.5 -212.5t194.5 -82.5h71 l-18 -88h-72q-162 0 -255 105.5t-62 277.5l63 354q11 60 -19 108t-85 58z" />
<glyph unicode="|" horiz-adv-x="458" d="M143 -258l334 1884h78l-334 -1884h-78z" />
<glyph unicode="}" horiz-adv-x="761" d="M2 -463l14 88h72q125 0 222.5 81.5t121.5 213.5l64 354q10 60 52.5 117t98.5 86q-47 29 -69 87t-11 120l66 360q12 72 -3 129t-52 93t-89.5 54.5t-117.5 18.5h-49l14 88h72q153 0 245.5 -95.5t75.5 -250.5q-2 -31 -12 -80l-58 -317q-10 -59 21 -106t86 -58l-14 -80 q-58 -7 -105 -56t-59 -110l-64 -354q-32 -173 -161 -278t-293 -105h-68z" />
<glyph unicode="&#xa1;" horiz-adv-x="450" d="M94 -463l195 1067h82l-185 -1067h-92zM297 883q8 35 34.5 57.5t61.5 22.5q36 0 58.5 -23t15.5 -57q-7 -35 -35.5 -56.5t-64.5 -21.5t-56.5 22t-13.5 56z" />
<glyph unicode="&#xa2;" horiz-adv-x="1064" d="M193 481q36 202 182 336.5t336 155.5l41 213h77l-38 -209q179 -9 292 -113l-69 -69q-103 90 -252 90q-172 0 -308.5 -112t-168.5 -292q-31 -181 66.5 -295t266.5 -114q152 0 283 92l49 -70q-150 -108 -336 -114l-39 -226h-77l41 230q-183 21 -282.5 157t-63.5 340z" />
<glyph unicode="&#xa3;" horiz-adv-x="1300" d="M98 0l15 92h206l91 506h-170l14 82h170l68 375q19 112 93.5 202t175 136.5t206.5 46.5q158 0 249.5 -100t71.5 -263h-92q17 121 -55.5 195t-190.5 74q-128 0 -235 -81t-131 -210l-66 -375h283l-15 -82h-284l-90 -506h628q29 0 51.5 21.5t28.5 54.5l21 102h92l-19 -102 q-12 -70 -66.5 -119t-121.5 -49h-928z" />
<glyph unicode="&#xa4;" horiz-adv-x="1228" d="M213 315l182 152q-69 100 -43 242q26 144 129 241l-129 156l70 57l129 -157q112 81 250 81q136 0 225 -83l188 159l46 -57l-185 -160q65 -107 41 -237q-24 -132 -123 -240l129 -158l-67 -57l-131 158q-121 -86 -256 -86q-144 0 -228 84l-180 -154zM451 709 q-20 -122 46.5 -204.5t188.5 -82.5t220 83t118 204q20 122 -47 204t-189 82t-219.5 -82.5t-117.5 -203.5z" />
<glyph unicode="&#xa5;" horiz-adv-x="1294" d="M305 252l14 76h336l35 194h-336l13 76h335l13 70l-398 743h111l352 -647l582 647h111l-664 -743l-12 -70h333l-12 -76h-334l-34 -194h333l-14 -76h-334l-43 -252h-94l43 252h-336z" />
<glyph unicode="&#xa6;" horiz-adv-x="466" d="M147 -258l132 747h77l-131 -747h-78zM346 877l135 749h78l-135 -749h-78z" />
<glyph unicode="&#xa7;" horiz-adv-x="1030" d="M139 -35l92 31q23 -74 87 -117t151 -43q127 0 226.5 81t123.5 212l49 281q24 131 -47 210.5t-196 79.5q-96 0 -160 -34l16 100q86 27 160 27q165 0 257 -105t63 -278l-50 -281q-32 -172 -162 -278.5t-294 -106.5q-119 0 -206 59t-110 162zM274 762l52 280q33 175 162 280 t294 105q119 0 204.5 -59t109.5 -162l-90 -30q-23 74 -88 116.5t-154 42.5q-127 0 -224.5 -80.5t-121.5 -212.5l-51 -280q-24 -132 46.5 -211.5t196.5 -79.5q96 0 160 37l-16 -100q-85 -29 -160 -29q-164 0 -257.5 105.5t-62.5 277.5z" />
<glyph unicode="&#xa8;" horiz-adv-x="987" d="M473 1288q6 34 32.5 55t59.5 21q36 0 56 -20.5t14 -55.5q-6 -32 -33.5 -53t-62.5 -21q-33 0 -52.5 21t-13.5 53zM807 1288q6 34 32.5 55t59.5 21q36 0 56 -20.5t14 -55.5q-6 -32 -34 -53t-63 -21q-33 0 -52 21t-13 53z" />
<glyph unicode="&#xa9;" horiz-adv-x="1677" d="M246 702q36 197 159.5 363.5t304.5 264t377 97.5t344.5 -97.5t214.5 -264.5t31 -363q-27 -148 -107 -281.5t-193 -230t-256 -153.5t-290 -57q-148 0 -270.5 57t-200 153.5t-109.5 230t-5 281.5zM330 702q-29 -174 27.5 -320.5t185.5 -232.5t303 -86q129 0 256 51 t227 136.5t171 203.5t93 248q24 130 -4.5 248.5t-98 204.5t-178.5 137t-239 51q-173 0 -332.5 -86.5t-268.5 -233.5t-142 -321zM631 700q25 139 138.5 237.5t248.5 98.5q124 0 217 -100l-68 -62q-77 80 -166 80q-102 0 -187.5 -74.5t-102.5 -179.5q-20 -103 39.5 -177 t162.5 -74q89 0 191 79l45 -59q-121 -100 -252 -100q-136 0 -213.5 97.5t-52.5 233.5z" />
<glyph unicode="&#xaa;" horiz-adv-x="987" d="M276 539l13 69h624l-12 -69h-625zM342 1049q16 92 73 167t139 116.5t171 41.5q80 0 139 -31.5t88 -91.5l21 109h78l-113 -627h-78l19 113q-49 -59 -122.5 -92t-150.5 -33q-136 0 -212.5 94t-51.5 234zM422 1049q-20 -104 39.5 -177t161.5 -73q104 0 187.5 67.5 t104.5 173.5q18 114 -40.5 185t-163.5 71q-103 0 -187.5 -70.5t-101.5 -176.5z" />
<glyph unicode="&#xab;" horiz-adv-x="872" d="M190 475l359 424h102l-358 -424l211 -424h-105zM455 475l358 424h102l-358 -424l209 -424h-102z" />
<glyph unicode="&#xac;" horiz-adv-x="1333" d="M287 608q8 68 16 88h991l-77 -430h-91l62 342h-901z" />
<glyph unicode="&#xad;" horiz-adv-x="980" d="M225 424l17 88h673l-16 -88h-674z" />
<glyph unicode="&#xae;" horiz-adv-x="1677" d="M246 702q36 197 159.5 363.5t304.5 264t377 97.5t344.5 -97.5t214.5 -264.5t31 -363q-27 -148 -107 -281.5t-193 -230t-256 -153.5t-290 -57q-148 0 -270.5 57t-200 153.5t-109.5 230t-5 281.5zM330 702q-29 -174 27.5 -320.5t185.5 -232.5t303 -86q129 0 256 51 t227 136.5t171 203.5t93 248q24 130 -4.5 248.5t-98 204.5t-178.5 137t-239 51q-173 0 -332.5 -86.5t-268.5 -233.5t-142 -321zM694 373l119 651h246q65 0 102.5 -30.5t46.5 -74t0 -98.5q-13 -80 -64 -135.5t-138 -62.5l133 -250h-97l-131 248h-90l-45 -248h-82zM838 698 h159q106 0 133 123q8 53 -12 88t-76 35h-163z" />
<glyph unicode="&#xaf;" horiz-adv-x="966" d="M463 1237l14 86h475l-14 -86h-475z" />
<glyph unicode="&#xb0;" horiz-adv-x="735" d="M336 1188q17 99 101 169t184 70t156.5 -69.5t39.5 -169.5q-17 -98 -100.5 -170t-181.5 -72q-99 0 -157.5 71.5t-41.5 170.5zM416 1188q-12 -67 27.5 -114.5t105.5 -47.5t122 47.5t68 114.5q12 66 -27.5 113t-105.5 47t-122 -46.5t-68 -113.5z" />
<glyph unicode="&#xb1;" horiz-adv-x="1124" d="M158 0l14 90h809l-14 -90h-809zM250 526l14 88h359l59 332h90l-59 -332h360l-14 -88h-361l-61 -333h-90l61 333h-358z" />
<glyph unicode="&#xb2;" horiz-adv-x="651" d="M250 965l6 34l408 402q84 84 94 153q10 67 -28.5 109.5t-108.5 42.5q-63 0 -119 -36.5t-76 -94.5l-72 18q32 89 108.5 141t170.5 52q106 0 164.5 -64.5t40.5 -167.5q-17 -98 -125 -206q-119 -113 -307 -301h344l-15 -82h-485z" />
<glyph unicode="&#xb3;" horiz-adv-x="667" d="M260 1106l74 39q13 -49 54.5 -76.5t98.5 -32.5q75 -7 139 38.5t85 117.5q17 71 -27 119.5t-115 48.5h-84l13 78h84q54 0 99 33.5t58 84.5q17 61 -12.5 102.5t-97.5 47.5q-50 4 -98 -18.5t-78 -61.5l-58 45q45 57 113 89t139 28q103 -7 152 -73.5t28 -155.5 q-10 -47 -47 -90t-88 -68q62 -21 90.5 -86t10.5 -135q-16 -67 -67 -121t-120.5 -82t-140.5 -23q-158 12 -205 152z" />
<glyph unicode="&#xb4;" horiz-adv-x="894" d="M459 1116l203 266h114l-227 -266h-90z" />
<glyph unicode="&#xb5;" horiz-adv-x="1146" d="M131 -305l223 1261h95l-99 -561q-26 -150 37.5 -236.5t194.5 -86.5q66 0 127 19t116 59t95.5 109t58.5 161l98 536h92l-168 -956h-94l33 188q-39 -73 -105.5 -121.5t-133.5 -67.5t-136 -19q-198 0 -266 139l-74 -424h-94z" />
<glyph unicode="&#xb6;" horiz-adv-x="1230" d="M246 979q34 180 182 306t328 126h116l-274 -1548h-92l123 682q-124 0 -220 57.5t-140.5 157.5t-22.5 219zM465 -381l14 86h94q61 0 113 43t64 102l276 1561h117q106 0 167 -75.5t44 -182.5l-25 -143h-92l25 143q13 79 -32.5 122.5t-127.5 43.5l-256 -1454 q-17 -100 -103 -173t-184 -73h-94z" />
<glyph unicode="&#xb7;" horiz-adv-x="477" d="M242 504q6 35 34 57.5t64 22.5t57 -22.5t15 -57.5q-6 -34 -35.5 -56t-65.5 -22t-55.5 21.5t-13.5 56.5z" />
<glyph unicode="&#xb8;" horiz-adv-x="1036" d="M285 -199h82q-7 -30 2 -59q11 -41 48.5 -57.5t84.5 0.5q35 14 58.5 40t27.5 58q3 27 -2 49l-43 197h86l37 -164q20 -77 -23 -152t-125 -104q-79 -31 -146 -1.5t-87 107.5q-8 43 0 86z" />
<glyph unicode="&#xb9;" horiz-adv-x="399" d="M344 1618l14 80l234 80l-143 -813h-82l125 702z" />
<glyph unicode="&#xba;" horiz-adv-x="976" d="M276 539l13 69h624l-12 -69h-625zM342 1049q16 92 73 167t139 116.5t171 41.5q136 0 214.5 -92.5t53.5 -232.5q-24 -139 -137 -233.5t-250 -94.5q-136 0 -212.5 94t-51.5 234zM422 1049q-20 -104 39.5 -177t161.5 -73t186 72.5t104 177.5q19 108 -39.5 177.5t-162.5 69.5 q-103 0 -187.5 -70.5t-101.5 -176.5z" />
<glyph unicode="&#xbb;" horiz-adv-x="872" d="M123 51l356 424l-205 424h103l205 -424l-357 -424h-102zM385 51l358 424l-204 424h102l205 -424l-357 -424h-104z" />
<glyph unicode="&#xbc;" horiz-adv-x="1533" d="M172 -20l1167 1398h99l-1168 -1398h-98zM311 1202l17 80l231 80l-145 -813h-82l125 702zM846 172l561 639h61l-102 -563h121l-14 -76h-121l-27 -172h-82l27 172h-424zM1004 248h280l74 409z" />
<glyph unicode="&#xbd;" horiz-adv-x="1585" d="M162 -20l1167 1398h98l-1167 -1398h-98zM313 1202l17 80l231 80l-145 -813h-82l125 702zM985 0l2 33l410 403q81 81 94 152q12 68 -28 109.5t-111 41.5q-63 0 -116.5 -35t-76.5 -94l-72 19q30 89 108 140.5t173 51.5q106 0 165 -65t40 -168q-20 -106 -127 -207 q-57 -57 -152 -148t-155 -151h344l-13 -82h-485z" />
<glyph unicode="&#xbe;" horiz-adv-x="1732" d="M223 690l74 41q32 -100 152 -110q75 -7 139.5 38t85.5 117q17 71 -28 119.5t-118 48.5h-84l17 78h84q53 0 96 33.5t61 85.5q14 62 -14 102.5t-98 46.5q-50 4 -98 -18.5t-78 -61.5l-56 45q42 56 111.5 88.5t140.5 28.5q105 -7 153.5 -72.5t27.5 -154.5 q-11 -50 -47.5 -92.5t-90.5 -65.5q64 -20 92 -86t9 -137q-25 -102 -121.5 -167.5t-206.5 -57.5q-156 12 -203 151zM371 -20l1167 1398h98l-1167 -1398h-98zM1044 172l562 639h61l-102 -563h121l-15 -76h-121l-26 -172h-82l26 172h-424zM1202 248h281l73 409z" />
<glyph unicode="&#xbf;" horiz-adv-x="952" d="M61 -84q24 136 124 237.5t227 135.5q109 28 164.5 72.5t74.5 144.5l19 106h92l-19 -106q-10 -59 -31 -104.5t-47.5 -75.5t-67.5 -54.5t-78.5 -39t-92.5 -31.5q-100 -31 -175.5 -105.5t-94.5 -179.5q-24 -129 54.5 -211t205.5 -82q120 0 217.5 74.5t126.5 198.5l90 -5 q-36 -163 -164.5 -261.5t-286.5 -98.5q-80 0 -149 27t-117 75.5t-68 122t-4 160.5zM682 891q7 35 35 57.5t63 22.5q36 0 57.5 -23t14.5 -57q-7 -35 -34.5 -56.5t-63.5 -21.5t-57.5 22t-14.5 56z" />
<glyph unicode="&#xc0;" horiz-adv-x="1282" d="M51 0l789 1411h98l293 -1411h-98l-82 383h-689l-212 -383h-99zM412 469h624l-168 813zM739 1792h113l109 -266h-93z" />
<glyph unicode="&#xc1;" horiz-adv-x="1282" d="M51 0l789 1411h98l293 -1411h-98l-82 383h-689l-212 -383h-99zM412 469h624l-168 813zM864 1526l201 266h115l-226 -266h-90z" />
<glyph unicode="&#xc2;" horiz-adv-x="1282" d="M51 0l789 1411h98l293 -1411h-98l-82 383h-689l-212 -383h-99zM412 469h624l-168 813zM631 1526l260 266h131l166 -266h-94l-148 203l-221 -203h-94z" />
<glyph unicode="&#xc3;" horiz-adv-x="1282" d="M51 0l789 1411h98l293 -1411h-98l-82 383h-689l-212 -383h-99zM412 469h624l-168 813zM668 1579q20 85 72 130.5t100 45.5h18q33 0 63.5 -21.5t58 -43t52.5 -21.5q28 0 54 21t36 67h80q-21 -85 -71 -129.5t-99 -44.5q-36 0 -70.5 22t-65.5 44t-58 22q-28 0 -54 -22.5 t-36 -69.5h-80z" />
<glyph unicode="&#xc4;" horiz-adv-x="1282" d="M51 0l789 1411h98l293 -1411h-98l-82 383h-689l-212 -383h-99zM412 469h624l-168 813zM692 1698q6 34 33 55t61 21q36 0 55 -20.5t13 -55.5q-6 -32 -32.5 -53t-61.5 -21q-33 0 -53.5 21t-14.5 53zM1026 1698q6 34 33 55t61 21q36 0 55 -20.5t13 -55.5q-6 -32 -32.5 -53 t-61.5 -21q-33 0 -53.5 21t-14.5 53z" />
<glyph unicode="&#xc5;" horiz-adv-x="1282" d="M51 0l789 1411h98l293 -1411h-98l-82 383h-689l-212 -383h-99zM412 469h624l-168 813zM764 1729q12 77 75 130.5t136 53.5q78 0 121.5 -53t29.5 -131q-12 -74 -76.5 -127.5t-140.5 -53.5q-74 0 -116 53t-29 128zM840 1729q-8 -43 17 -73t69 -30t81 30t44 73 q7 47 -18 76.5t-70 29.5t-80.5 -29.5t-42.5 -76.5z" />
<glyph unicode="&#xc6;" horiz-adv-x="1964" d="M31 0l1161 1411h885l-17 -92h-690l-102 -580h604l-17 -94h-604l-98 -553h715l-15 -92h-806l67 387h-655l-318 -387h-110zM530 477h598l150 842h-47z" />
<glyph unicode="&#xc7;" horiz-adv-x="1351" d="M240 702q36 197 155 363.5t295 264t369 97.5q273 0 442 -190l-74 -66q-151 164 -387 164q-169 0 -320 -84.5t-253 -229t-135 -319.5q-33 -172 19.5 -316.5t175.5 -229t290 -84.5q240 0 443 164l51 -66q-227 -187 -506 -190l26 -115q18 -78 -23.5 -152.5t-123.5 -103.5 q-79 -31 -146 -1.5t-87 107.5q-8 43 0 86h81q-6 -28 3 -59q11 -42 47.5 -58t83.5 1q36 14 60 40t28 58q3 16 -4 49l-33 154q-168 19 -289 119.5t-171 257.5t-17 339z" />
<glyph unicode="&#xc8;" horiz-adv-x="1128" d="M211 0l248 1411h782l-16 -92h-690l-103 -580h604l-16 -92h-604l-99 -555h715l-14 -92h-807zM725 1792h113l108 -266h-92z" />
<glyph unicode="&#xc9;" horiz-adv-x="1128" d="M211 0l248 1411h782l-16 -92h-690l-103 -580h604l-16 -92h-604l-99 -555h715l-14 -92h-807zM745 1526l201 266h115l-225 -266h-91z" />
<glyph unicode="&#xca;" horiz-adv-x="1128" d="M211 0l248 1411h782l-16 -92h-690l-103 -580h604l-16 -92h-604l-99 -555h715l-14 -92h-807zM563 1526l260 266h131l166 -266h-94l-147 203l-222 -203h-94z" />
<glyph unicode="&#xcb;" horiz-adv-x="1128" d="M211 0l248 1411h782l-16 -92h-690l-103 -580h604l-16 -92h-604l-99 -555h715l-14 -92h-807zM625 1698q6 34 33 55t61 21q36 0 54.5 -20.5t12.5 -55.5q-6 -32 -32.5 -53t-61.5 -21q-33 0 -53 21t-14 53zM958 1698q6 34 33.5 55t61.5 21q36 0 54.5 -20.5t12.5 -55.5 q-6 -32 -32.5 -53t-61.5 -21q-33 0 -53.5 21t-14.5 53z" />
<glyph unicode="&#xcc;" horiz-adv-x="514" d="M211 0l248 1411h92l-248 -1411h-92zM350 1792h113l108 -266h-92z" />
<glyph unicode="&#xcd;" horiz-adv-x="514" d="M211 0l248 1411h92l-248 -1411h-92zM477 1526l201 266h115l-226 -266h-90z" />
<glyph unicode="&#xce;" horiz-adv-x="514" d="M211 0l248 1411h92l-248 -1411h-92zM248 1526l260 266h131l166 -266h-94l-148 203l-221 -203h-94z" />
<glyph unicode="&#xcf;" horiz-adv-x="514" d="M211 0l248 1411h92l-248 -1411h-92zM309 1698q6 34 33 55t61 21q36 0 55 -20.5t13 -55.5q-6 -32 -32.5 -53t-61.5 -21q-33 0 -53.5 21t-14.5 53zM643 1698q6 34 33 55t61 21q36 0 55 -20.5t13 -55.5q-6 -32 -32.5 -53t-61.5 -21q-33 0 -53.5 21t-14.5 53z" />
<glyph unicode="&#xd0;" horiz-adv-x="1488" d="M133 655l12 86h201l121 670h524q98 0 180.5 -24.5t142 -70t103 -109.5t64 -143t24.5 -170.5t-16 -191.5q-27 -151 -91.5 -279t-159 -222.5t-222 -147.5t-273.5 -53h-524l115 655h-201zM326 92h432q127 0 236 46t189 128t134.5 193t79.5 243q33 176 -3.5 315t-145 220.5 t-275.5 81.5h-432l-103 -578h379l-12 -86h-379z" />
<glyph unicode="&#xd1;" horiz-adv-x="1400" d="M211 0l248 1411h104l559 -1261l224 1261h92l-248 -1411h-100l-566 1262l-221 -1262h-92zM727 1579q20 85 72 130.5t100 45.5h19q33 0 63.5 -21.5t58 -43t52.5 -21.5q28 0 54 21t36 67h80q-21 -85 -71 -129.5t-99 -44.5q-36 0 -70.5 22t-66 44t-58.5 22q-28 0 -54 -22.5 t-36 -69.5h-80z" />
<glyph unicode="&#xd2;" horiz-adv-x="1648" d="M238 702q36 197 158 363.5t301.5 264t375.5 97.5t343 -97.5t211.5 -264t29.5 -363.5q-27 -148 -106 -281.5t-191 -230t-254 -153.5t-289 -57q-146 0 -267.5 57t-198.5 153.5t-108.5 230t-4.5 281.5zM330 702q-32 -172 24 -317t183.5 -229t296.5 -84q173 0 329.5 84 t262.5 228.5t139 317.5q24 130 -3 247t-95 201.5t-175 134.5t-235 50q-170 0 -326 -84.5t-262 -229.5t-139 -319zM907 1792h113l110 -266h-92z" />
<glyph unicode="&#xd3;" horiz-adv-x="1648" d="M238 702q36 197 158 363.5t301.5 264t375.5 97.5t343 -97.5t211.5 -264t29.5 -363.5q-27 -148 -106 -281.5t-191 -230t-254 -153.5t-289 -57q-146 0 -267.5 57t-198.5 153.5t-108.5 230t-4.5 281.5zM330 702q-32 -172 24 -317t183.5 -229t296.5 -84q173 0 329.5 84 t262.5 228.5t139 317.5q24 130 -3 247t-95 201.5t-175 134.5t-235 50q-170 0 -326 -84.5t-262 -229.5t-139 -319zM1051 1526l198 266h115l-223 -266h-90z" />
<glyph unicode="&#xd4;" horiz-adv-x="1648" d="M238 702q36 197 158 363.5t301.5 264t375.5 97.5t343 -97.5t211.5 -264t29.5 -363.5q-27 -148 -106 -281.5t-191 -230t-254 -153.5t-289 -57q-146 0 -267.5 57t-198.5 153.5t-108.5 230t-4.5 281.5zM330 702q-32 -172 24 -317t183.5 -229t296.5 -84q173 0 329.5 84 t262.5 228.5t139 317.5q24 130 -3 247t-95 201.5t-175 134.5t-235 50q-170 0 -326 -84.5t-262 -229.5t-139 -319zM819 1526l258 266h131l168 -266h-94l-147 203l-222 -203h-94z" />
<glyph unicode="&#xd5;" horiz-adv-x="1648" d="M238 702q36 197 158 363.5t301.5 264t375.5 97.5t343 -97.5t211.5 -264t29.5 -363.5q-27 -148 -106 -281.5t-191 -230t-254 -153.5t-289 -57q-146 0 -267.5 57t-198.5 153.5t-108.5 230t-4.5 281.5zM330 702q-32 -172 24 -317t183.5 -229t296.5 -84q173 0 329.5 84 t262.5 228.5t139 317.5q24 130 -3 247t-95 201.5t-175 134.5t-235 50q-170 0 -326 -84.5t-262 -229.5t-139 -319zM854 1579q20 84 73.5 130t100.5 46h19q31 0 62 -21.5t59 -43t51 -21.5q28 0 54.5 21t37.5 67h80q-18 -84 -70.5 -129t-101.5 -45q-35 0 -70 22t-66.5 44 t-58.5 22q-28 0 -54 -22.5t-36 -69.5h-80z" />
<glyph unicode="&#xd6;" horiz-adv-x="1648" d="M238 702q36 197 158 363.5t301.5 264t375.5 97.5t343 -97.5t211.5 -264t29.5 -363.5q-27 -148 -106 -281.5t-191 -230t-254 -153.5t-289 -57q-146 0 -267.5 57t-198.5 153.5t-108.5 230t-4.5 281.5zM330 702q-32 -172 24 -317t183.5 -229t296.5 -84q173 0 329.5 84 t262.5 228.5t139 317.5q24 130 -3 247t-95 201.5t-175 134.5t-235 50q-170 0 -326 -84.5t-262 -229.5t-139 -319zM881 1698q6 34 32.5 55t59.5 21q36 0 55.5 -20.5t13.5 -55.5q-6 -32 -32.5 -53t-61.5 -21q-33 0 -53 21t-14 53zM1214 1698q6 34 33 55t60 21q36 0 55.5 -20.5 t13.5 -55.5q-6 -32 -32.5 -53t-61.5 -21q-33 0 -53.5 21t-14.5 53z" />
<glyph unicode="&#xd7;" horiz-adv-x="964" d="M205 293l315 266l-221 264l76 62l215 -262l315 264l49 -64l-307 -264l217 -268l-73 -64l-224 267l-309 -265z" />
<glyph unicode="&#xd8;" horiz-adv-x="1646" d="M119 35l211 182q-143 208 -94 485q27 147 106 281t190.5 231.5t253 155t287.5 57.5q137 0 251 -49t194 -137l219 189l47 -56l-223 -190q142 -209 94 -482q-27 -148 -106 -281.5t-191 -230t-254 -153.5t-289 -57q-275 0 -438 180l-211 -180zM328 702q-44 -230 78 -419 l1032 891q-142 161 -381 161q-171 0 -327 -84.5t-262.5 -229.5t-139.5 -319zM453 225q143 -153 381 -153q172 0 328 84t262 228.5t139 317.5q45 231 -76 416z" />
<glyph unicode="&#xd9;" horiz-adv-x="1378" d="M279 469l167 942h91l-166 -942q-16 -88 2 -163.5t64 -126t114 -79t149 -28.5q168 0 303 109.5t168 287.5l166 942h95l-168 -942q-27 -145 -114 -258.5t-209 -173.5t-257 -60q-100 0 -184 35.5t-140 98.5t-78.5 156t-2.5 202zM803 1792h112l109 -266h-92z" />
<glyph unicode="&#xda;" horiz-adv-x="1378" d="M279 469l167 942h91l-166 -942q-16 -88 2 -163.5t64 -126t114 -79t149 -28.5q168 0 303 109.5t168 287.5l166 942h95l-168 -942q-27 -145 -114 -258.5t-209 -173.5t-257 -60q-100 0 -184 35.5t-140 98.5t-78.5 156t-2.5 202zM887 1526l200 266h115l-225 -266h-90z" />
<glyph unicode="&#xdb;" horiz-adv-x="1378" d="M279 469l167 942h91l-166 -942q-16 -88 2 -163.5t64 -126t114 -79t149 -28.5q168 0 303 109.5t168 287.5l166 942h95l-168 -942q-27 -145 -114 -258.5t-209 -173.5t-257 -60q-100 0 -184 35.5t-140 98.5t-78.5 156t-2.5 202zM678 1526l260 266h131l166 -266h-94l-146 203 l-223 -203h-94z" />
<glyph unicode="&#xdc;" horiz-adv-x="1378" d="M279 469l167 942h91l-166 -942q-16 -88 2 -163.5t64 -126t114 -79t149 -28.5q168 0 303 109.5t168 287.5l166 942h95l-168 -942q-27 -145 -114 -258.5t-209 -173.5t-257 -60q-100 0 -184 35.5t-140 98.5t-78.5 156t-2.5 202zM741 1698q6 34 33 55t60 21q36 0 55.5 -20.5 t13.5 -55.5q-6 -32 -32.5 -53t-61.5 -21q-33 0 -53.5 21t-14.5 53zM1075 1698q6 34 32.5 55t59.5 21q36 0 56 -20.5t14 -55.5q-6 -32 -32.5 -53t-61.5 -21q-33 0 -53.5 21t-14.5 53z" />
<glyph unicode="&#xdd;" horiz-adv-x="1232" d="M289 1411h110l353 -647l581 647h111l-664 -743l-116 -668h-95l117 668zM821 1526l201 266h115l-226 -266h-90z" />
<glyph unicode="&#xde;" horiz-adv-x="1163" d="M211 0l248 1411h92l-47 -270h366q175 0 272.5 -114t65.5 -300q-36 -189 -174 -305.5t-313 -116.5h-367l-51 -305h-92zM373 397h366q135 0 243 92t132 238q24 145 -50.5 233.5t-209.5 88.5h-367z" />
<glyph unicode="&#xdf;" horiz-adv-x="1648" d="M224 546q-7 98 18 202h1329q14 132 -20 243.5t-101.5 185.5t-164 115.5t-204 43.5t-226 -39.5t-224.5 -125.5l-53 66q92 74 194 120t199 61.5t192 5t176 -46t147.5 -97.5t110.5 -143t61.5 -187.5t2.5 -226.5l-14 -66q-30 -140 -109.5 -265.5t-189 -215.5t-246.5 -143 t-277 -53q-102 0 -194 28t-162.5 78.5t-125.5 121t-83.5 155.5t-35.5 183zM319 657q-16 -161 45 -295.5t186.5 -213t289.5 -78.5q163 0 313.5 78.5t256 212.5t146.5 296h-1237z" />
<glyph unicode="&#xe0;" d="M186 479q24 140 111 255t211.5 179t259.5 64q130 0 228 -60t139 -165l34 204h95l-166 -956h-94l34 207q-78 -105 -198 -166t-248 -61q-206 0 -324 143t-82 356zM281 479q-32 -170 64.5 -287.5t262.5 -117.5q167 0 304 110.5t173 284.5q29 181 -67.5 297.5t-265.5 116.5 q-167 0 -304.5 -116t-166.5 -288zM643 1382h113l106 -266h-92z" />
<glyph unicode="&#xe1;" d="M186 479q24 140 111 255t211.5 179t259.5 64q130 0 228 -60t139 -165l34 204h95l-166 -956h-94l34 207q-78 -105 -198 -166t-248 -61q-206 0 -324 143t-82 356zM281 479q-32 -170 64.5 -287.5t262.5 -117.5q167 0 304 110.5t173 284.5q29 181 -67.5 297.5t-265.5 116.5 q-167 0 -304.5 -116t-166.5 -288zM733 1116l203 266h115l-228 -266h-90z" />
<glyph unicode="&#xe2;" d="M186 479q24 140 111 255t211.5 179t259.5 64q130 0 228 -60t139 -165l34 204h95l-166 -956h-94l34 207q-78 -105 -198 -166t-248 -61q-206 0 -324 143t-82 356zM281 479q-32 -170 64.5 -287.5t262.5 -117.5q167 0 304 110.5t173 284.5q29 181 -67.5 297.5t-265.5 116.5 q-167 0 -304.5 -116t-166.5 -288zM518 1116l262 266h131l164 -266h-94l-150 203l-219 -203h-94z" />
<glyph unicode="&#xe3;" d="M186 479q24 140 111 255t211.5 179t259.5 64q130 0 228 -60t139 -165l34 204h95l-166 -956h-94l34 207q-78 -105 -198 -166t-248 -61q-206 0 -324 143t-82 356zM281 479q-32 -170 64.5 -287.5t262.5 -117.5q167 0 304 110.5t173 284.5q29 181 -67.5 297.5t-265.5 116.5 q-167 0 -304.5 -116t-166.5 -288zM588 1169q20 85 69.5 131t98.5 46h18q32 0 63.5 -21.5t60 -43t52.5 -21.5q28 0 53 21t35 67h80q-19 -84 -70 -129t-100 -45q-35 0 -69 22t-65 44t-58 22t-52.5 -23t-35.5 -70h-80z" />
<glyph unicode="&#xe4;" d="M186 479q24 140 111 255t211.5 179t259.5 64q130 0 228 -60t139 -165l34 204h95l-166 -956h-94l34 207q-78 -105 -198 -166t-248 -61q-206 0 -324 143t-82 356zM281 479q-32 -170 64.5 -287.5t262.5 -117.5q167 0 304 110.5t173 284.5q29 181 -67.5 297.5t-265.5 116.5 q-167 0 -304.5 -116t-166.5 -288zM578 1288q6 34 32.5 55t59.5 21q36 0 55.5 -20.5t13.5 -55.5q-6 -32 -33.5 -53t-62.5 -21q-33 0 -52 21t-13 53zM911 1288q6 34 33 55t60 21q36 0 55.5 -20.5t13.5 -55.5q-6 -32 -33.5 -53t-62.5 -21q-33 0 -52.5 21t-13.5 53z" />
<glyph unicode="&#xe5;" d="M186 479q24 140 111 255t211.5 179t259.5 64q130 0 228 -60t139 -165l34 204h95l-166 -956h-94l34 207q-78 -105 -198 -166t-248 -61q-206 0 -324 143t-82 356zM281 479q-32 -170 64.5 -287.5t262.5 -117.5q167 0 304 110.5t173 284.5q29 181 -67.5 297.5t-265.5 116.5 q-167 0 -304.5 -116t-166.5 -288zM651 1319q12 77 76 130.5t137 53.5q78 0 121 -53t29 -131q-12 -74 -75.5 -127t-139.5 -53q-74 0 -117.5 52.5t-30.5 127.5zM727 1319q-8 -43 17 -72.5t69 -29.5t81 29.5t44 72.5q10 46 -17 76t-73 30q-44 0 -77 -29.5t-44 -76.5z" />
<glyph unicode="&#xe6;" horiz-adv-x="2045" d="M186 479q24 140 111 255t211.5 179t259.5 64q130 0 228 -60t139 -165l34 204h95l-29 -172q80 92 189.5 142.5t232.5 50.5q135 0 230.5 -60t136.5 -173.5t14 -262.5q-5 -37 -8 -43h-854q-17 -165 74 -265.5t247 -100.5q108 0 203.5 47.5t161.5 134.5l86 -31 q-84 -116 -207 -179.5t-260 -63.5q-123 0 -215.5 50.5t-139.5 143.5l-28 -174h-94l34 207q-78 -105 -198 -166t-248 -61q-206 0 -324 143t-82 356zM281 479q-32 -170 64.5 -287.5t262.5 -117.5q167 0 304 110.5t173 284.5q29 181 -67.5 297.5t-265.5 116.5 q-167 0 -304.5 -116t-166.5 -288zM1190 524h762q13 165 -71.5 263t-240.5 98q-157 0 -283 -99t-167 -262z" />
<glyph unicode="&#xe7;" horiz-adv-x="1026" d="M188 481q27 148 115 262t211.5 174t259.5 60q189 0 305 -113l-69 -69q-103 90 -252 90q-172 0 -308.5 -112t-168.5 -292q-31 -181 66.5 -295t266.5 -114q152 0 283 92l49 -70q-144 -108 -332 -114l27 -115q20 -76 -23 -152t-124 -104q-79 -31 -146.5 -1t-87.5 107 q-9 48 -2 86h82q-4 -36 4 -59q11 -42 47.5 -58t83.5 1q36 14 60 40t28 58q3 16 -4 49l-33 154q-182 25 -278 158t-60 337z" />
<glyph unicode="&#xe8;" horiz-adv-x="1146" d="M188 481q27 148 111.5 262t204 174t254.5 60t230.5 -60t136.5 -173.5t14 -262.5q-5 -33 -9 -43h-854q-17 -165 74.5 -265.5t247.5 -100.5q108 0 203.5 47.5t161.5 134.5l86 -31q-84 -116 -207 -179.5t-260 -63.5q-205 0 -319 139t-75 362zM291 524h762q13 165 -71.5 263 t-240.5 98q-157 0 -283 -99t-167 -262zM690 1382h113l106 -266h-92z" />
<glyph unicode="&#xe9;" horiz-adv-x="1146" d="M188 481q27 148 111.5 262t204 174t254.5 60t230.5 -60t136.5 -173.5t14 -262.5q-5 -33 -9 -43h-854q-17 -165 74.5 -265.5t247.5 -100.5q108 0 203.5 47.5t161.5 134.5l86 -31q-84 -116 -207 -179.5t-260 -63.5q-205 0 -319 139t-75 362zM291 524h762q13 165 -71.5 263 t-240.5 98q-157 0 -283 -99t-167 -262zM641 1116l203 266h114l-227 -266h-90z" />
<glyph unicode="&#xea;" horiz-adv-x="1146" d="M188 481q27 148 111.5 262t204 174t254.5 60t230.5 -60t136.5 -173.5t14 -262.5q-5 -33 -9 -43h-854q-17 -165 74.5 -265.5t247.5 -100.5q108 0 203.5 47.5t161.5 134.5l86 -31q-84 -116 -207 -179.5t-260 -63.5q-205 0 -319 139t-75 362zM291 524h762q13 165 -71.5 263 t-240.5 98q-157 0 -283 -99t-167 -262zM498 1116l262 266h131l164 -266h-94l-150 203l-219 -203h-94z" />
<glyph unicode="&#xeb;" horiz-adv-x="1146" d="M188 481q27 148 111.5 262t204 174t254.5 60t230.5 -60t136.5 -173.5t14 -262.5q-5 -33 -9 -43h-854q-17 -165 74.5 -265.5t247.5 -100.5q108 0 203.5 47.5t161.5 134.5l86 -31q-84 -116 -207 -179.5t-260 -63.5q-205 0 -319 139t-75 362zM291 524h762q13 165 -71.5 263 t-240.5 98q-157 0 -283 -99t-167 -262zM561 1288q6 34 32.5 55t59.5 21q36 0 56 -20.5t14 -55.5q-6 -32 -33.5 -53t-62.5 -21q-33 0 -52.5 21t-13.5 53zM895 1288q6 34 32.5 55t59.5 21q36 0 56 -20.5t14 -55.5q-6 -32 -33.5 -53t-62.5 -21q-33 0 -52.5 21t-13.5 53z" />
<glyph unicode="&#xec;" horiz-adv-x="438" d="M172 0l168 956h94l-168 -956h-94zM244 1382h112l107 -266h-92z" />
<glyph unicode="&#xed;" horiz-adv-x="438" d="M172 0l168 956h94l-168 -956h-94zM365 1116l202 266h115l-227 -266h-90z" />
<glyph unicode="&#xee;" horiz-adv-x="438" d="M137 1116l262 266h131l164 -266h-94l-149 203l-220 -203h-94zM172 0l166 956h94l-166 -956h-94z" />
<glyph unicode="&#xef;" horiz-adv-x="438" d="M172 0l168 956h94l-168 -956h-94zM201 1288q6 34 32.5 55t59.5 21q36 0 55.5 -20.5t13.5 -55.5q-6 -32 -32.5 -53t-61.5 -21q-33 0 -53 21t-14 53zM535 1288q6 34 32.5 55t59.5 21q36 0 55.5 -20.5t13.5 -55.5q-6 -32 -32.5 -53t-61.5 -21q-33 0 -53 21t-14 53z" />
<glyph unicode="&#xf0;" horiz-adv-x="1212" d="M186 481q20 111 76.5 205t134 157t171.5 98.5t190 35.5q95 0 170 -33l-195 307l-205 -118l-32 59l204 119l-118 190h112l92 -143l164 92l37 -55l-166 -92l326 -521q71 -115 41 -301q-27 -149 -115 -265t-212 -177.5t-261 -61.5q-136 0 -239.5 61.5t-152.5 178t-22 264.5z M281 481q-16 -90 3 -167.5t65 -130t115.5 -82t151.5 -29.5q171 0 308.5 114t169.5 295q31 180 -67 292t-267 112q-111 0 -212 -49t-173.5 -142t-93.5 -213z" />
<glyph unicode="&#xf1;" horiz-adv-x="1144" d="M172 0l168 956h94l-35 -188q57 107 162 158t215 51q174 0 259 -111.5t50 -304.5l-100 -561h-92l98 561q26 150 -38 237t-195 87q-65 0 -126 -19.5t-117 -59t-97.5 -108.5t-59.5 -161l-92 -537h-94zM532 1169q20 85 70.5 131t99.5 46h19q33 0 63.5 -21.5t58 -43 t52.5 -21.5q28 0 54 21t36 67h80q-19 -84 -70.5 -129t-101.5 -45q-35 0 -69 22t-65.5 44t-58.5 22t-52.5 -23t-35.5 -70h-80z" />
<glyph unicode="&#xf2;" horiz-adv-x="1208" d="M186 481q27 148 115 262t212 174t261 60q101 0 186 -35.5t142 -98.5t80.5 -157t3.5 -205q-39 -222 -208 -361.5t-380 -139.5q-102 0 -187 36t-141.5 100.5t-79.5 159t-4 205.5zM279 481q-31 -182 67 -295.5t268 -113.5q172 0 310 113.5t170 295.5q31 180 -67 292 t-269 112q-112 0 -213 -49t-173 -142t-93 -213zM625 1382h112l107 -266h-92z" />
<glyph unicode="&#xf3;" horiz-adv-x="1208" d="M186 481q27 148 115 262t212 174t261 60q101 0 186 -35.5t142 -98.5t80.5 -157t3.5 -205q-39 -222 -208 -361.5t-380 -139.5q-102 0 -187 36t-141.5 100.5t-79.5 159t-4 205.5zM279 481q-31 -182 67 -295.5t268 -113.5q172 0 310 113.5t170 295.5q31 180 -67 292 t-269 112q-112 0 -213 -49t-173 -142t-93 -213zM739 1116l203 266h115l-228 -266h-90z" />
<glyph unicode="&#xf4;" horiz-adv-x="1208" d="M186 481q27 148 115 262t212 174t261 60q101 0 186 -35.5t142 -98.5t80.5 -157t3.5 -205q-39 -222 -208 -361.5t-380 -139.5q-102 0 -187 36t-141.5 100.5t-79.5 159t-4 205.5zM279 481q-31 -182 67 -295.5t268 -113.5q172 0 310 113.5t170 295.5q31 180 -67 292 t-269 112q-112 0 -213 -49t-173 -142t-93 -213zM520 1116l262 266h131l164 -266h-94l-149 203l-220 -203h-94z" />
<glyph unicode="&#xf5;" horiz-adv-x="1208" d="M186 481q27 148 115 262t212 174t261 60q101 0 186 -35.5t142 -98.5t80.5 -157t3.5 -205q-39 -222 -208 -361.5t-380 -139.5q-102 0 -187 36t-141.5 100.5t-79.5 159t-4 205.5zM279 481q-31 -182 67 -295.5t268 -113.5q172 0 310 113.5t170 295.5q31 180 -67 292 t-269 112q-112 0 -213 -49t-173 -142t-93 -213zM559 1169q16 84 68 130.5t100 46.5h18q32 0 64 -21.5t60.5 -43t52.5 -21.5q28 0 53 21t35 67h80q-19 -84 -70.5 -129t-101.5 -45q-35 0 -69.5 22t-65 44t-56.5 22q-27 0 -52.5 -23t-35.5 -70h-80z" />
<glyph unicode="&#xf6;" horiz-adv-x="1208" d="M186 481q27 148 115 262t212 174t261 60q101 0 186 -35.5t142 -98.5t80.5 -157t3.5 -205q-39 -222 -208 -361.5t-380 -139.5q-102 0 -187 36t-141.5 100.5t-79.5 159t-4 205.5zM279 481q-31 -182 67 -295.5t268 -113.5q172 0 310 113.5t170 295.5q31 180 -67 292 t-269 112q-112 0 -213 -49t-173 -142t-93 -213zM582 1288q6 34 33 55t61 21q36 0 54.5 -20.5t12.5 -55.5q-6 -32 -32.5 -53t-61.5 -21q-33 0 -53 21t-14 53zM915 1288q6 34 33.5 55t61.5 21q36 0 54.5 -20.5t12.5 -55.5q-6 -32 -32.5 -53t-61.5 -21q-33 0 -53.5 21t-14.5 53 z" />
<glyph unicode="&#xf7;" horiz-adv-x="1181" d="M250 504l14 90h856l-14 -90h-856zM535 176q8 35 34.5 57.5t61.5 22.5q36 0 58.5 -23t15.5 -57q-7 -35 -36 -56.5t-65 -21.5t-56 21.5t-13 56.5zM662 897q6 35 34 57.5t64 22.5t56.5 -22.5t14.5 -57.5t-34 -56.5t-64 -21.5t-56.5 21.5t-14.5 56.5z" />
<glyph unicode="&#xf8;" horiz-adv-x="1206" d="M111 35l133 115q-90 134 -56 331q27 148 115 262t212 174t261 60q186 0 303 -111l135 117l46 -55l-132 -115q91 -134 58 -332q-39 -222 -208 -361.5t-380 -139.5q-190 0 -307 114l-133 -114zM279 481q-27 -160 45 -264l677 584q-96 84 -241 84q-111 0 -212.5 -49 t-174.5 -142.5t-94 -212.5zM369 160q94 -88 247 -88q172 0 310 113.5t170 295.5q27 157 -47 264z" />
<glyph unicode="&#xf9;" horiz-adv-x="1146" d="M229 395l99 561h94l-98 -561q-26 -151 37.5 -237t193.5 -86q67 0 128 19t116.5 59t96 109t58.5 161l95 536h94l-168 -956h-94l32 188q-39 -73 -106 -121.5t-134 -67.5t-136 -19q-173 0 -257 111.5t-51 303.5zM627 1382h112l109 -266h-92z" />
<glyph unicode="&#xfa;" horiz-adv-x="1146" d="M229 395l99 561h94l-98 -561q-26 -151 37.5 -237t193.5 -86q67 0 128 19t116.5 59t96 109t58.5 161l95 536h94l-168 -956h-94l32 188q-39 -73 -106 -121.5t-134 -67.5t-136 -19q-173 0 -257 111.5t-51 303.5zM649 1116l201 266h115l-226 -266h-90z" />
<glyph unicode="&#xfb;" horiz-adv-x="1146" d="M229 395l99 561h94l-98 -561q-26 -151 37.5 -237t193.5 -86q67 0 128 19t116.5 59t96 109t58.5 161l95 536h94l-168 -956h-94l32 188q-39 -73 -106 -121.5t-134 -67.5t-136 -19q-173 0 -257 111.5t-51 303.5zM506 1116l260 266h131l166 -266h-94l-150 203l-219 -203h-94z " />
<glyph unicode="&#xfc;" horiz-adv-x="1146" d="M229 395l99 561h94l-98 -561q-26 -151 37.5 -237t193.5 -86q67 0 128 19t116.5 59t96 109t58.5 161l95 536h94l-168 -956h-94l32 188q-39 -73 -106 -121.5t-134 -67.5t-136 -19q-173 0 -257 111.5t-51 303.5zM541 1288q6 34 33 55t61 21q36 0 54.5 -20.5t12.5 -55.5 q-6 -32 -32.5 -53t-61.5 -21q-33 0 -53 21t-14 53zM874 1288q6 34 33.5 55t61.5 21q36 0 54.5 -20.5t12.5 -55.5q-6 -32 -32.5 -53t-61.5 -21q-33 0 -53.5 21t-14.5 53z" />
<glyph unicode="&#xfd;" horiz-adv-x="1024" d="M184 -463l275 459l-234 960h99l206 -843l508 843h101l-863 -1419h-92zM612 1116l201 266h115l-226 -266h-90z" />
<glyph unicode="&#xfe;" d="M86 -463l350 1964h94l-131 -747q74 103 194.5 163t250.5 60q136 0 236.5 -63.5t145.5 -177.5t21 -255t-111 -257t-211.5 -180t-258.5 -64q-128 0 -226 61t-139 166l-121 -670h-94zM346 471q-14 -87 6 -162t66 -126t114.5 -80t149.5 -29q167 0 304.5 118t166.5 289 q29 172 -65 288t-261 116q-168 0 -308.5 -118.5t-172.5 -295.5z" />
<glyph unicode="&#xff;" horiz-adv-x="1146" d="M188 473q5 33 9 43h854q17 165 -74.5 266t-247.5 101q-108 0 -203 -48t-161 -135l-86 31q84 117 206.5 180.5t259.5 63.5q205 0 319.5 -139.5t74.5 -362.5q-27 -148 -111.5 -262t-204 -174t-254.5 -60t-230.5 60t-136.5 173.5t-14 262.5zM274 430q-17 -164 69 -262 t243 -98t281.5 98t168.5 262h-762z" />
<glyph unicode="&#x152;" horiz-adv-x="2359" d="M238 702q36 197 158 363.5t301.5 264t375.5 97.5q199 0 348 -102.5t207 -271.5l62 358h782l-18 -92h-689l-102 -580h602l-16 -94h-602l-97 -553h713l-14 -92h-807l59 352q-121 -171 -302.5 -271.5t-381.5 -100.5q-146 0 -267.5 57t-198.5 153.5t-108.5 230t-4.5 281.5z M330 702q-32 -172 24 -317t183.5 -229t296.5 -84q131 0 255.5 50.5t221 137t163.5 204.5t89 249q27 170 -28.5 312.5t-181.5 226t-296 83.5t-326 -84.5t-262 -229.5t-139 -319z" />
<glyph unicode="&#x153;" horiz-adv-x="2052" d="M186 481q27 148 115 262t212 174t261 60q150 0 258.5 -74.5t145.5 -204.5q78 130 207.5 204.5t277.5 74.5q135 0 230.5 -60t136.5 -173.5t14 -262.5q-5 -37 -8 -43h-854q-17 -165 74 -265.5t247 -100.5q108 0 202.5 47.5t162.5 134.5l86 -31q-84 -116 -207 -179.5 t-260 -63.5q-149 0 -253 74.5t-136 207.5q-81 -132 -215 -207t-285 -75q-102 0 -187 36t-141.5 100.5t-79.5 159t-4 205.5zM279 481q-31 -182 67 -295.5t268 -113.5q110 0 214 46.5t177.5 138t84.5 206.5l2 18q24 185 -70.5 294.5t-263.5 109.5q-112 0 -213 -49t-173 -142 t-93 -213zM1196 524h762q13 165 -71 263t-240 98q-157 0 -283.5 -99t-167.5 -262z" />
<glyph unicode="&#x178;" horiz-adv-x="1232" d="M289 1411h110l353 -647l581 647h111l-664 -743l-116 -668h-95l117 668zM670 1698q6 34 33 55t61 21q36 0 54.5 -20.5t12.5 -55.5q-6 -32 -32.5 -53t-61.5 -21q-33 0 -53 21t-14 53zM1004 1698q6 34 33 55t61 21q36 0 54.5 -20.5t12.5 -55.5q-6 -32 -32.5 -53t-61.5 -21 q-33 0 -53 21t-14 53z" />
<glyph unicode="&#x2c6;" horiz-adv-x="987" d="M410 1116l262 266h131l164 -266h-95l-149 203l-219 -203h-94z" />
<glyph unicode="&#x2dc;" horiz-adv-x="923" d="M418 1169q20 85 69.5 131t98.5 46h18q32 0 63.5 -21.5t60 -43t52.5 -21.5q28 0 53 21t35 67h80q-19 -85 -69 -129.5t-101 -44.5q-35 0 -69 22t-65 44t-58 22t-52.5 -23t-35.5 -70h-80z" />
<glyph unicode="&#x2000;" horiz-adv-x="956" />
<glyph unicode="&#x2001;" horiz-adv-x="1913" />
<glyph unicode="&#x2002;" horiz-adv-x="956" />
<glyph unicode="&#x2003;" horiz-adv-x="1913" />
<glyph unicode="&#x2004;" horiz-adv-x="637" />
<glyph unicode="&#x2005;" horiz-adv-x="478" />
<glyph unicode="&#x2006;" horiz-adv-x="318" />
<glyph unicode="&#x2007;" horiz-adv-x="318" />
<glyph unicode="&#x2008;" horiz-adv-x="239" />
<glyph unicode="&#x2009;" horiz-adv-x="382" />
<glyph unicode="&#x200a;" horiz-adv-x="106" />
<glyph unicode="&#x2010;" horiz-adv-x="980" d="M225 424l17 88h673l-16 -88h-674z" />
<glyph unicode="&#x2011;" horiz-adv-x="980" d="M225 424l17 88h673l-16 -88h-674z" />
<glyph unicode="&#x2012;" horiz-adv-x="980" d="M225 424l17 88h673l-16 -88h-674z" />
<glyph unicode="&#x2013;" horiz-adv-x="1198" d="M217 418l14 86h908l-15 -86h-907z" />
<glyph unicode="&#x2014;" horiz-adv-x="1622" d="M217 418l14 86h1332l-15 -86h-1331z" />
<glyph unicode="&#x2018;" horiz-adv-x="454" d="M319 1008q48 246 224 422q4 -3 15 -7t25 -9t19 -7q-154 -168 -190 -399h-93z" />
<glyph unicode="&#x2019;" horiz-adv-x="456" d="M303 1014q152 177 186 397h93q-50 -244 -226 -420q-5 3 -27 11.5t-26 11.5z" />
<glyph unicode="&#x201a;" horiz-adv-x="442" d="M43 -137q153 175 188 397h93q-48 -244 -224 -420z" />
<glyph unicode="&#x201c;" horiz-adv-x="665" d="M319 1008q49 251 224 422q4 -3 15 -7t25 -9t19 -7q-154 -168 -190 -399h-93zM530 1008q48 246 224 422q6 -3 30.5 -12t28.5 -11q-154 -168 -190 -399h-93z" />
<glyph unicode="&#x201d;" horiz-adv-x="665" d="M301 1012q152 178 186 399h93q-51 -247 -226 -422q-5 3 -27 11.5t-26 11.5zM512 1012q152 178 186 399h93q-52 -252 -226 -422q-4 3 -26.5 11.5t-26.5 11.5z" />
<glyph unicode="&#x201e;" horiz-adv-x="653" d="M43 -137q154 176 186 397h93q-48 -244 -224 -420l-17.5 7t-23 9t-14.5 7zM254 -137q154 176 186 397h92q-50 -250 -223 -420q-5 3 -27.5 11.5t-27.5 11.5z" />
<glyph unicode="&#x2022;" horiz-adv-x="892" d="M268 483q17 105 106.5 176.5t198.5 71.5t173 -71.5t47 -176.5q-22 -107 -109.5 -178.5t-196.5 -71.5t-174 72t-45 178z" />
<glyph unicode="&#x2026;" horiz-adv-x="1347" d="M162 57q6 35 34 57.5t64 22.5t57 -22.5t15 -57.5q-6 -34 -35.5 -55.5t-65.5 -21.5t-55.5 21t-13.5 56zM598 57q6 35 34 57.5t64 22.5t57 -22.5t15 -57.5q-6 -34 -35 -55.5t-65 -21.5t-56 21t-14 56zM1034 57q6 35 34.5 57.5t64.5 22.5t55.5 -22.5t13.5 -57.5 q-6 -34 -34 -55.5t-64 -21.5t-56 21t-14 56z" />
<glyph unicode="&#x202f;" horiz-adv-x="382" />
<glyph unicode="&#x2039;" horiz-adv-x="608" d="M190 475l359 424h102l-358 -424l209 -424h-103z" />
<glyph unicode="&#x203a;" horiz-adv-x="608" d="M123 51l356 424l-205 424h103l205 -424l-357 -424h-102z" />
<glyph unicode="&#x205f;" horiz-adv-x="478" />
<glyph unicode="&#x20ac;" horiz-adv-x="1617" d="M209 561l10 74h932l-10 -74h-629q5 -213 142 -351t354 -138q239 0 442 164l51 -66q-231 -190 -510 -190q-255 0 -414 164t-159 417h-209zM244 770l14 74h209q92 253 309 418t473 165q274 0 443 -190l-74 -66q-151 164 -387 164q-218 0 -404.5 -138t-265.5 -353h629 l-14 -74h-932z" />
<glyph unicode="&#x2122;" horiz-adv-x="1734" d="M371 1331l12 80h668l200 -620l416 620h64l-43 -786h-78l37 637l-381 -570h-66l-180 568l-191 -635h-79l215 706h-267l-127 -706h-79l126 706h-247z" />
<glyph unicode="&#x25fc;" horiz-adv-x="952" d="M0 0v952h952v-952h-952z" />
</font>
</defs>
</svg>
